<svg width="96" height="96" viewBox="0 0 96 96" fill="none" xmlns="http://www.w3.org/2000/svg">
<path d="M48 96C74.5097 96 96 74.5097 96 48C96 21.4903 74.5097 0 48 0C21.4903 0 0 21.4903 0 48C0 74.5097 21.4903 96 48 96ZM48 6.85714C51.5372 6.85714 55.8274 10.1076 59.4332 17.92C60.7145 20.6962 61.8278 23.8961 62.7226 27.4286H33.2774C34.1722 23.8961 35.2855 20.6962 36.5668 17.92C40.1726 10.1076 44.4628 6.85714 48 6.85714ZM30.3408 15.0465C28.663 18.6817 27.2717 22.8595 26.224 27.4286H12.3613C17.0718 19.2855 24.493 12.9068 33.3911 9.52624C32.2588 11.2348 31.2406 13.0969 30.3408 15.0465ZM24.9558 34.2857C24.3319 38.6417 24 43.2483 24 48C24 52.7517 24.3319 57.3583 24.9558 61.7143H9.19825C7.68211 57.4247 6.85714 52.8087 6.85714 48C6.85714 43.1913 7.68211 38.5753 9.19825 34.2857H24.9558ZM26.224 68.5714C27.2717 73.1405 28.663 77.3183 30.3408 80.9535C31.2406 82.9031 32.2588 84.7652 33.3911 86.4738C24.493 83.0932 17.0718 76.7144 12.3613 68.5714H26.224ZM33.2774 68.5714H62.7226C61.8278 72.1039 60.7145 75.3038 59.4332 78.08C55.8274 85.8924 51.5372 89.1429 48 89.1429C44.4628 89.1429 40.1726 85.8924 36.5668 78.08C35.2855 75.3038 34.1722 72.1039 33.2774 68.5714ZM64.1112 61.7143H31.8888C31.2232 57.4348 30.8571 52.8234 30.8571 48C30.8571 43.1766 31.2232 38.5652 31.8888 34.2857H64.1112C64.7768 38.5652 65.1429 43.1766 65.1429 48C65.1429 52.8234 64.7768 57.4348 64.1112 61.7143ZM69.776 68.5714H83.6387C78.9282 76.7144 71.507 83.0932 62.6089 86.4738C63.7412 84.7652 64.7594 82.9031 65.6592 80.9535C67.337 77.3183 68.7283 73.1405 69.776 68.5714ZM86.8018 61.7143H71.0442C71.6681 57.3583 72 52.7517 72 48C72 43.2483 71.6681 38.6417 71.0442 34.2857H86.8018C88.3179 38.5753 89.1429 43.1913 89.1429 48C89.1429 52.8087 88.3179 57.4247 86.8018 61.7143ZM62.6089 9.52624C71.507 12.9068 78.9282 19.2855 83.6387 27.4286H69.776C68.7283 22.8595 67.337 18.6817 65.6592 15.0465C64.7594 13.0969 63.7412 11.2348 62.6089 9.52624Z" fill="white"/>
<path d="M67.7769 63.6202C64.3856 60.1404 58.8991 60.1235 55.5224 63.5882C52.1458 67.053 52.1623 72.6826 55.5536 76.1624L68.1074 89.0437C68.6281 89.578 69.4723 89.578 69.993 89.0437L82.4816 76.2369C85.8504 72.7609 85.8397 67.147 82.4478 63.6666C79.0505 60.1806 73.5614 60.1637 70.1787 63.6346L68.986 64.8609L67.7769 63.6202Z" fill="#76A3EF"/>
<path fill-rule="evenodd" clip-rule="evenodd" d="M86.7837 80.4192L74.29 93.2314C74.2896 93.2318 74.2892 93.2322 74.2887 93.2327C71.4129 96.1822 66.6858 96.1817 63.8105 93.2314L51.2567 80.3501C45.615 74.5612 45.5577 65.2163 51.2255 59.4006C56.0347 54.466 63.3706 53.6993 68.9922 57.0105C74.6326 53.7156 81.959 54.5684 86.7448 59.479C92.3947 65.2764 92.4269 74.5965 86.7902 80.4126L86.7837 80.4192ZM71.0361 62.8629C70.7381 63.0975 70.4515 63.3547 70.1787 63.6346L68.986 64.8609L67.7769 63.6202C67.4982 63.3343 67.2053 63.0717 66.9007 62.8325C63.4981 60.1612 58.6216 60.4083 55.5225 63.5883C52.1458 67.053 52.1623 72.6826 55.5536 76.1624L68.1074 89.0437C68.6281 89.578 69.4723 89.578 69.9931 89.0437L82.4816 76.2369C85.8504 72.7609 85.8398 67.147 82.4478 63.6667C79.3245 60.4618 74.4332 60.189 71.0361 62.8629Z" fill="#242424"/>
</svg>
