<svg width="93" height="24" viewBox="0 0 93 24" fill="none" xmlns="http://www.w3.org/2000/svg">
<path d="M43.7373 17H42.124V10.6562C42.124 10.1367 42.1559 9.50098 42.2197 8.74902H42.1924C42.0921 9.17741 42.0033 9.48503 41.9258 9.67188L39 17H37.8789L34.9463 9.72656C34.8643 9.51237 34.7777 9.18652 34.6865 8.74902H34.6592C34.6956 9.14095 34.7139 9.78125 34.7139 10.6699V17H33.21V7.19727H35.5L38.0771 13.7256C38.2731 14.2269 38.4007 14.6006 38.46 14.8467H38.4941C38.6628 14.3317 38.7995 13.9489 38.9043 13.6982L41.5293 7.19727H43.7373V17ZM46.7933 8.53027C46.5335 8.53027 46.3102 8.44596 46.1234 8.27734C45.9411 8.10872 45.8499 7.89453 45.8499 7.63477C45.8499 7.375 45.9411 7.15853 46.1234 6.98535C46.3102 6.81217 46.5335 6.72559 46.7933 6.72559C47.0622 6.72559 47.29 6.81217 47.4769 6.98535C47.6637 7.15853 47.7572 7.375 47.7572 7.63477C47.7572 7.88086 47.6637 8.09277 47.4769 8.27051C47.29 8.44368 47.0622 8.53027 46.7933 8.53027ZM47.5794 17H45.9935V10H47.5794V17ZM54.6823 16.6787C54.1217 17.0023 53.4587 17.1641 52.693 17.1641C51.654 17.1641 50.8154 16.8405 50.1774 16.1934C49.5394 15.5417 49.2204 14.6986 49.2204 13.6641C49.2204 12.5111 49.5622 11.5859 50.2458 10.8887C50.9339 10.1868 51.8522 9.83594 53.0007 9.83594C53.6387 9.83594 54.2015 9.94759 54.6891 10.1709V11.6475C54.2015 11.2829 53.682 11.1006 53.1305 11.1006C52.4606 11.1006 51.9115 11.3285 51.4831 11.7842C51.0547 12.2354 50.8405 12.8278 50.8405 13.5615C50.8405 14.2861 51.041 14.8581 51.4421 15.2773C51.8477 15.6966 52.39 15.9062 53.069 15.9062C53.6387 15.9062 54.1764 15.7035 54.6823 15.2979V16.6787ZM60.3359 11.5107C60.1445 11.3604 59.8688 11.2852 59.5088 11.2852C59.0394 11.2852 58.6475 11.4971 58.333 11.9209C58.0186 12.3447 57.8613 12.9212 57.8613 13.6504V17H56.2754V10H57.8613V11.4424H57.8887C58.0436 10.9502 58.2806 10.5674 58.5996 10.2939C58.9232 10.016 59.2832 9.87695 59.6797 9.87695C59.9668 9.87695 60.1856 9.92025 60.3359 10.0068V11.5107ZM64.4515 17.1641C63.3714 17.1641 62.5078 16.8382 61.8607 16.1865C61.2181 15.5303 60.8968 14.6621 60.8968 13.582C60.8968 12.4062 61.2318 11.488 61.9017 10.8271C62.5762 10.1663 63.4831 9.83594 64.6224 9.83594C65.7162 9.83594 66.5684 10.1572 67.179 10.7998C67.7897 11.4424 68.0951 12.3333 68.0951 13.4727C68.0951 14.5892 67.7647 15.4847 67.1039 16.1592C66.4476 16.8291 65.5635 17.1641 64.4515 17.1641ZM64.5267 11.1006C63.9069 11.1006 63.417 11.3171 63.057 11.75C62.697 12.1829 62.5169 12.7799 62.5169 13.541C62.5169 14.2747 62.6992 14.8535 63.0638 15.2773C63.4284 15.6966 63.916 15.9062 64.5267 15.9062C65.1511 15.9062 65.6296 15.6989 65.9622 15.2842C66.2995 14.8695 66.4681 14.2793 66.4681 13.5137C66.4681 12.7435 66.2995 12.1488 65.9622 11.7295C65.6296 11.3102 65.1511 11.1006 64.5267 11.1006ZM69.2917 16.7812V15.3115C69.8841 15.7627 70.5381 15.9883 71.2536 15.9883C72.2106 15.9883 72.6891 15.7057 72.6891 15.1406C72.6891 14.9811 72.6481 14.8467 72.5661 14.7373C72.4841 14.6234 72.3724 14.5231 72.2311 14.4365C72.0944 14.3499 71.9304 14.2725 71.7389 14.2041C71.5521 14.1357 71.3425 14.0583 71.11 13.9717C70.8229 13.8577 70.5632 13.737 70.3307 13.6094C70.1029 13.4818 69.9115 13.3382 69.7565 13.1787C69.6061 13.0146 69.4922 12.8301 69.4147 12.625C69.3373 12.4199 69.2985 12.1807 69.2985 11.9072C69.2985 11.57 69.3783 11.2738 69.5378 11.0186C69.6973 10.7588 69.9115 10.5423 70.1804 10.3691C70.4492 10.1914 70.7546 10.0592 71.0964 9.97266C71.4382 9.88151 71.7914 9.83594 72.1559 9.83594C72.8031 9.83594 73.3818 9.93392 73.8923 10.1299V11.5176C73.4001 11.1803 72.835 11.0117 72.197 11.0117C71.9964 11.0117 71.8141 11.0322 71.6501 11.0732C71.4906 11.1143 71.3539 11.1712 71.2399 11.2441C71.126 11.3171 71.0371 11.4059 70.9733 11.5107C70.9095 11.611 70.8776 11.7227 70.8776 11.8457C70.8776 11.9961 70.9095 12.1237 70.9733 12.2285C71.0371 12.3333 71.1305 12.4268 71.2536 12.5088C71.3812 12.5863 71.5316 12.6592 71.7048 12.7275C71.8825 12.7913 72.0853 12.862 72.3132 12.9395C72.6139 13.0625 72.8828 13.1878 73.1198 13.3154C73.3613 13.443 73.5664 13.5889 73.735 13.7529C73.9037 13.9124 74.0335 14.0993 74.1247 14.3135C74.2158 14.5231 74.2614 14.7738 74.2614 15.0654C74.2614 15.4209 74.1794 15.7308 74.0153 15.9951C73.8512 16.2594 73.6325 16.4782 73.3591 16.6514C73.0856 16.8245 72.7689 16.9521 72.4089 17.0342C72.0534 17.1208 71.6774 17.1641 71.2809 17.1641C70.5153 17.1641 69.8522 17.0365 69.2917 16.7812ZM78.8897 17.1641C77.8096 17.1641 76.946 16.8382 76.2988 16.1865C75.6563 15.5303 75.335 14.6621 75.335 13.582C75.335 12.4062 75.6699 11.488 76.3399 10.8271C77.0143 10.1663 77.9212 9.83594 79.0606 9.83594C80.1543 9.83594 81.0065 10.1572 81.6172 10.7998C82.2279 11.4424 82.5332 12.3333 82.5332 13.4727C82.5332 14.5892 82.2028 15.4847 81.542 16.1592C80.8858 16.8291 80.0016 17.1641 78.8897 17.1641ZM78.9649 11.1006C78.3451 11.1006 77.8552 11.3171 77.4951 11.75C77.1351 12.1829 76.9551 12.7799 76.9551 13.541C76.9551 14.2747 77.1374 14.8535 77.502 15.2773C77.8666 15.6966 78.3542 15.9062 78.9649 15.9062C79.5892 15.9062 80.0677 15.6989 80.4004 15.2842C80.7376 14.8695 80.9063 14.2793 80.9063 13.5137C80.9063 12.7435 80.7376 12.1488 80.4004 11.7295C80.0677 11.3102 79.5892 11.1006 78.9649 11.1006ZM87.8929 7.92871C87.6787 7.80566 87.4349 7.74414 87.1615 7.74414C86.3913 7.74414 86.0062 8.17936 86.0062 9.0498V10H87.6332V11.2441H86.013V17H84.4271V11.2441H83.2308V10H84.4271V8.86523C84.4271 8.12695 84.6686 7.5459 85.1517 7.12207C85.6348 6.69368 86.2386 6.47949 86.9632 6.47949C87.3552 6.47949 87.6651 6.52279 87.8929 6.60938V7.92871ZM92.7263 16.9248C92.4164 17.0798 92.0085 17.1572 91.5026 17.1572C90.1446 17.1572 89.4655 16.5055 89.4655 15.2021V11.2441H88.2966V10H89.4655V8.37988L91.0515 7.92871V10H92.7263V11.2441H91.0515V14.7441C91.0515 15.1589 91.1266 15.4551 91.277 15.6328C91.4274 15.8105 91.6781 15.8994 92.029 15.8994C92.2979 15.8994 92.5303 15.8219 92.7263 15.667V16.9248Z" fill="white"/>
<rect x="2" y="2" width="9.5" height="9.5" fill="#F25022"/>
<rect x="12.5" y="2" width="9.5" height="9.5" fill="#80BA01"/>
<rect x="12.5" y="12.5" width="9.5" height="9.5" fill="#FFB902"/>
<rect x="2" y="12.5" width="9.5" height="9.5" fill="#02A4EF"/>
</svg>
